<?xml version="1.0" encoding="UTF-8"?>
<svg xmlns="http://www.w3.org/2000/svg" xmlns:xlink="http://www.w3.org/1999/xlink"
     width="700" height="900" viewBox="0 0 700 900">
<defs>
</defs>
<path d="M8.946570213426071,146.21148219596148 L126.18878221373845,5.842572446287363 L510.975129154573,32.62082156069248 L659.2646566403563,255.23852681303362 L324.25296854884124,217.48017875764435 Z" stroke="black" fill="rgb(47, 103, 177)" stroke-width="3" />
<path d="M8.946570213426071,446.2114821959615 L126.18878221373845,305.84257244628736 L510.975129154573,332.6208215606925 L659.2646566403563,555.2385268130336 L324.25296854884124,517.4801787576444 Z" stroke="black" fill="rgb(47, 103, 177)" stroke-width="3" />
<path d="M8.946570213426071,746.2114821959615 L126.18878221373845,605.8425724462874 L510.975129154573,632.6208215606924 L659.2646566403563,855.2385268130336 L324.25296854884124,817.4801787576444 Z" stroke="black" fill="rgb(47, 103, 177)" stroke-width="3" />
<path d="M88.1913329986163,142.52829073565206 L176.1229919988506,37.25160842339649 L464.7127522044765,57.33529525920033 L575.9298978188141,224.29857419845618 L324.671131750178,195.97981315691442 Z" stroke="black" fill="rgb(191, 44, 35)" stroke-width="3" />
<path d="M55.84345501355102,390.0639182960918 L79.2918974136135,361.990136346157 L280.10332099007223,316.5538720920494 L357.06059037823917,321.90952191493045 L570.2909401488863,421.66790366162894 L599.948845646043,466.19144471209717 L525.2599814037502,540.1351875908779 L458.25764378544727,532.5835179798 L198.13040921467515,488.9727001329712 L135.06912954759215,474.7189608206346 Z" stroke="black" fill="rgb(191, 44, 35)" stroke-width="3" />
<path d="M253.08026138701752,642.6072582462775 L387.7554828163096,651.9796454363193 L494.37065770163315,701.8588363096685 L546.2719923216574,779.775033147988 L508.92756020051104,816.7469045873784 L391.67346936848116,803.5314827679922 L261.60985208309467,781.7260738445777 L151.25261266569936,756.7820300479887 L111.63977539867876,714.4545087857173 L152.67454959878813,665.3253903733313 Z" stroke="black" fill="rgb(191, 44, 35)" stroke-width="3" />
<circle cx="8.946570213426071" cy="146.21148219596148" r="5" />
<circle cx="126.18878221373845" cy="5.842572446287363" r="5" />
<circle cx="510.975129154573" cy="32.62082156069248" r="5" />
<circle cx="659.2646566403563" cy="255.23852681303362" r="5" />
<circle cx="324.25296854884124" cy="217.48017875764435" r="5" />
</svg>